<mxfile host="app.diagrams.net" agent="Mozilla/5.0 (Windows NT 10.0; Win64; x64) AppleWebKit/537.36 (KHTML, like Gecko) Chrome/129.0.0.0 Safari/537.36" version="24.7.16">
  <diagram name="Página-1" id="qZzoa-_E-lmn7giQiTtf">
    <mxGraphModel dx="1050" dy="575" grid="1" gridSize="10" guides="1" tooltips="1" connect="1" arrows="1" fold="1" page="1" pageScale="1" pageWidth="827" pageHeight="1169" math="0" shadow="0">
      <root>
        <mxCell id="0" />
        <mxCell id="1" parent="0" />
        <mxCell id="OoEbSzyb9xaVRGmWqiv0-14" style="edgeStyle=orthogonalEdgeStyle;rounded=0;orthogonalLoop=1;jettySize=auto;html=1;exitX=1;exitY=0.25;exitDx=0;exitDy=0;entryX=0;entryY=0.5;entryDx=0;entryDy=0;fillColor=#e1d5e7;strokeColor=#9673a6;" edge="1" parent="1" source="OoEbSzyb9xaVRGmWqiv0-1" target="OoEbSzyb9xaVRGmWqiv0-13">
          <mxGeometry relative="1" as="geometry" />
        </mxCell>
        <mxCell id="OoEbSzyb9xaVRGmWqiv0-27" style="edgeStyle=orthogonalEdgeStyle;rounded=0;orthogonalLoop=1;jettySize=auto;html=1;exitX=1;exitY=0.5;exitDx=0;exitDy=0;entryX=0;entryY=0.5;entryDx=0;entryDy=0;fillColor=#dae8fc;strokeColor=#6c8ebf;" edge="1" parent="1" source="OoEbSzyb9xaVRGmWqiv0-1" target="OoEbSzyb9xaVRGmWqiv0-19">
          <mxGeometry relative="1" as="geometry" />
        </mxCell>
        <mxCell id="OoEbSzyb9xaVRGmWqiv0-35" style="edgeStyle=orthogonalEdgeStyle;rounded=0;orthogonalLoop=1;jettySize=auto;html=1;exitX=1;exitY=0.75;exitDx=0;exitDy=0;entryX=0;entryY=0.5;entryDx=0;entryDy=0;fillColor=#f8cecc;strokeColor=#b85450;" edge="1" parent="1" source="OoEbSzyb9xaVRGmWqiv0-1" target="OoEbSzyb9xaVRGmWqiv0-34">
          <mxGeometry relative="1" as="geometry" />
        </mxCell>
        <mxCell id="OoEbSzyb9xaVRGmWqiv0-44" style="edgeStyle=orthogonalEdgeStyle;rounded=0;orthogonalLoop=1;jettySize=auto;html=1;exitX=0.5;exitY=1;exitDx=0;exitDy=0;entryX=0.5;entryY=0;entryDx=0;entryDy=0;" edge="1" parent="1" source="OoEbSzyb9xaVRGmWqiv0-1" target="OoEbSzyb9xaVRGmWqiv0-2">
          <mxGeometry relative="1" as="geometry" />
        </mxCell>
        <mxCell id="OoEbSzyb9xaVRGmWqiv0-1" value="digitar e-mail" style="rounded=1;whiteSpace=wrap;html=1;" vertex="1" parent="1">
          <mxGeometry x="330" y="150" width="120" height="60" as="geometry" />
        </mxCell>
        <mxCell id="OoEbSzyb9xaVRGmWqiv0-18" style="edgeStyle=orthogonalEdgeStyle;rounded=0;orthogonalLoop=1;jettySize=auto;html=1;exitX=1;exitY=0.25;exitDx=0;exitDy=0;entryX=0;entryY=0.5;entryDx=0;entryDy=0;fillColor=#e1d5e7;strokeColor=#9673a6;" edge="1" parent="1" source="OoEbSzyb9xaVRGmWqiv0-2" target="OoEbSzyb9xaVRGmWqiv0-13">
          <mxGeometry relative="1" as="geometry" />
        </mxCell>
        <mxCell id="OoEbSzyb9xaVRGmWqiv0-45" style="edgeStyle=orthogonalEdgeStyle;rounded=0;orthogonalLoop=1;jettySize=auto;html=1;exitX=0.5;exitY=1;exitDx=0;exitDy=0;entryX=0.5;entryY=0;entryDx=0;entryDy=0;" edge="1" parent="1" source="OoEbSzyb9xaVRGmWqiv0-2" target="OoEbSzyb9xaVRGmWqiv0-4">
          <mxGeometry relative="1" as="geometry" />
        </mxCell>
        <mxCell id="OoEbSzyb9xaVRGmWqiv0-2" value="digitar nome completo" style="rounded=1;whiteSpace=wrap;html=1;" vertex="1" parent="1">
          <mxGeometry x="330" y="270" width="120" height="60" as="geometry" />
        </mxCell>
        <mxCell id="OoEbSzyb9xaVRGmWqiv0-17" style="edgeStyle=orthogonalEdgeStyle;rounded=0;orthogonalLoop=1;jettySize=auto;html=1;exitX=1;exitY=0.25;exitDx=0;exitDy=0;entryX=0;entryY=0.5;entryDx=0;entryDy=0;fillColor=#e1d5e7;strokeColor=#9673a6;" edge="1" parent="1" source="OoEbSzyb9xaVRGmWqiv0-4" target="OoEbSzyb9xaVRGmWqiv0-13">
          <mxGeometry relative="1" as="geometry" />
        </mxCell>
        <mxCell id="OoEbSzyb9xaVRGmWqiv0-36" style="edgeStyle=orthogonalEdgeStyle;rounded=0;orthogonalLoop=1;jettySize=auto;html=1;exitX=1;exitY=0.5;exitDx=0;exitDy=0;entryX=0;entryY=0.5;entryDx=0;entryDy=0;fillColor=#f8cecc;strokeColor=#b85450;" edge="1" parent="1" source="OoEbSzyb9xaVRGmWqiv0-4" target="OoEbSzyb9xaVRGmWqiv0-34">
          <mxGeometry relative="1" as="geometry" />
        </mxCell>
        <mxCell id="OoEbSzyb9xaVRGmWqiv0-42" style="edgeStyle=orthogonalEdgeStyle;rounded=0;orthogonalLoop=1;jettySize=auto;html=1;exitX=0;exitY=0.25;exitDx=0;exitDy=0;entryX=1;entryY=0.5;entryDx=0;entryDy=0;fillColor=#d5e8d4;strokeColor=#82b366;" edge="1" parent="1" source="OoEbSzyb9xaVRGmWqiv0-4" target="OoEbSzyb9xaVRGmWqiv0-38">
          <mxGeometry relative="1" as="geometry" />
        </mxCell>
        <mxCell id="OoEbSzyb9xaVRGmWqiv0-46" style="edgeStyle=orthogonalEdgeStyle;rounded=0;orthogonalLoop=1;jettySize=auto;html=1;exitX=0.5;exitY=1;exitDx=0;exitDy=0;entryX=0.5;entryY=0;entryDx=0;entryDy=0;" edge="1" parent="1" source="OoEbSzyb9xaVRGmWqiv0-4" target="OoEbSzyb9xaVRGmWqiv0-5">
          <mxGeometry relative="1" as="geometry" />
        </mxCell>
        <mxCell id="OoEbSzyb9xaVRGmWqiv0-4" value="digitar senha" style="rounded=1;whiteSpace=wrap;html=1;" vertex="1" parent="1">
          <mxGeometry x="330" y="380" width="120" height="60" as="geometry" />
        </mxCell>
        <mxCell id="OoEbSzyb9xaVRGmWqiv0-40" style="edgeStyle=orthogonalEdgeStyle;rounded=0;orthogonalLoop=1;jettySize=auto;html=1;exitX=0;exitY=0.25;exitDx=0;exitDy=0;fillColor=#d5e8d4;strokeColor=#82b366;" edge="1" parent="1" source="OoEbSzyb9xaVRGmWqiv0-5" target="OoEbSzyb9xaVRGmWqiv0-38">
          <mxGeometry relative="1" as="geometry" />
        </mxCell>
        <mxCell id="OoEbSzyb9xaVRGmWqiv0-48" style="edgeStyle=orthogonalEdgeStyle;rounded=0;orthogonalLoop=1;jettySize=auto;html=1;exitX=0.5;exitY=1;exitDx=0;exitDy=0;entryX=0.5;entryY=0;entryDx=0;entryDy=0;" edge="1" parent="1" source="OoEbSzyb9xaVRGmWqiv0-5" target="OoEbSzyb9xaVRGmWqiv0-6">
          <mxGeometry relative="1" as="geometry" />
        </mxCell>
        <mxCell id="OoEbSzyb9xaVRGmWqiv0-5" value="digitar confirmação de senha" style="rounded=1;whiteSpace=wrap;html=1;" vertex="1" parent="1">
          <mxGeometry x="330" y="490" width="120" height="60" as="geometry" />
        </mxCell>
        <mxCell id="OoEbSzyb9xaVRGmWqiv0-49" style="edgeStyle=orthogonalEdgeStyle;rounded=0;orthogonalLoop=1;jettySize=auto;html=1;exitX=0.5;exitY=1;exitDx=0;exitDy=0;entryX=0.5;entryY=0;entryDx=0;entryDy=0;" edge="1" parent="1" source="OoEbSzyb9xaVRGmWqiv0-6" target="OoEbSzyb9xaVRGmWqiv0-47">
          <mxGeometry relative="1" as="geometry" />
        </mxCell>
        <mxCell id="OoEbSzyb9xaVRGmWqiv0-6" value="clicar em cadastrar" style="rounded=1;whiteSpace=wrap;html=1;" vertex="1" parent="1">
          <mxGeometry x="330" y="600" width="120" height="60" as="geometry" />
        </mxCell>
        <mxCell id="OoEbSzyb9xaVRGmWqiv0-53" style="edgeStyle=orthogonalEdgeStyle;rounded=0;orthogonalLoop=1;jettySize=auto;html=1;exitX=0.5;exitY=1;exitDx=0;exitDy=0;fillColor=#e1d5e7;strokeColor=#9673a6;" edge="1" parent="1" source="OoEbSzyb9xaVRGmWqiv0-13">
          <mxGeometry relative="1" as="geometry">
            <mxPoint x="590" y="490" as="targetPoint" />
          </mxGeometry>
        </mxCell>
        <mxCell id="OoEbSzyb9xaVRGmWqiv0-13" value="campo vazio" style="rhombus;whiteSpace=wrap;html=1;fillColor=#e1d5e7;strokeColor=#9673a6;" vertex="1" parent="1">
          <mxGeometry x="610" y="255" width="140" height="60" as="geometry" />
        </mxCell>
        <mxCell id="OoEbSzyb9xaVRGmWqiv0-54" style="edgeStyle=orthogonalEdgeStyle;rounded=0;orthogonalLoop=1;jettySize=auto;html=1;exitX=0.5;exitY=1;exitDx=0;exitDy=0;entryX=0.5;entryY=0;entryDx=0;entryDy=0;fillColor=#dae8fc;strokeColor=#6c8ebf;" edge="1" parent="1" source="OoEbSzyb9xaVRGmWqiv0-19" target="OoEbSzyb9xaVRGmWqiv0-50">
          <mxGeometry relative="1" as="geometry" />
        </mxCell>
        <mxCell id="OoEbSzyb9xaVRGmWqiv0-19" value="e-mail já cadastrado" style="rhombus;whiteSpace=wrap;html=1;fillColor=#dae8fc;strokeColor=#6c8ebf;" vertex="1" parent="1">
          <mxGeometry x="510" y="150" width="140" height="60" as="geometry" />
        </mxCell>
        <mxCell id="OoEbSzyb9xaVRGmWqiv0-51" style="edgeStyle=orthogonalEdgeStyle;rounded=0;orthogonalLoop=1;jettySize=auto;html=1;exitX=0.5;exitY=1;exitDx=0;exitDy=0;entryX=0.5;entryY=0;entryDx=0;entryDy=0;fillColor=#f8cecc;strokeColor=#b85450;" edge="1" parent="1" source="OoEbSzyb9xaVRGmWqiv0-34" target="OoEbSzyb9xaVRGmWqiv0-50">
          <mxGeometry relative="1" as="geometry" />
        </mxCell>
        <mxCell id="OoEbSzyb9xaVRGmWqiv0-34" value="campo fora do padrão" style="rhombus;whiteSpace=wrap;html=1;fillColor=#f8cecc;strokeColor=#b85450;" vertex="1" parent="1">
          <mxGeometry x="630" y="410" width="140" height="60" as="geometry" />
        </mxCell>
        <mxCell id="OoEbSzyb9xaVRGmWqiv0-43" style="edgeStyle=orthogonalEdgeStyle;rounded=0;orthogonalLoop=1;jettySize=auto;html=1;exitX=1;exitY=1;exitDx=0;exitDy=0;entryX=0;entryY=0.5;entryDx=0;entryDy=0;fillColor=#d5e8d4;strokeColor=#82b366;" edge="1" parent="1" source="OoEbSzyb9xaVRGmWqiv0-38" target="OoEbSzyb9xaVRGmWqiv0-4">
          <mxGeometry relative="1" as="geometry" />
        </mxCell>
        <mxCell id="OoEbSzyb9xaVRGmWqiv0-38" value="senhas diferentes" style="rhombus;whiteSpace=wrap;html=1;fillColor=#d5e8d4;strokeColor=#82b366;" vertex="1" parent="1">
          <mxGeometry x="140" y="365" width="140" height="60" as="geometry" />
        </mxCell>
        <mxCell id="OoEbSzyb9xaVRGmWqiv0-47" value="usuário cadastrado" style="rounded=1;whiteSpace=wrap;html=1;" vertex="1" parent="1">
          <mxGeometry x="330" y="710" width="120" height="60" as="geometry" />
        </mxCell>
        <mxCell id="OoEbSzyb9xaVRGmWqiv0-50" value="exibir mensagem de erro" style="rounded=1;whiteSpace=wrap;html=1;fillColor=#ffe6cc;strokeColor=#d79b00;" vertex="1" parent="1">
          <mxGeometry x="460" y="510" width="120" height="60" as="geometry" />
        </mxCell>
      </root>
    </mxGraphModel>
  </diagram>
</mxfile>
